<!DOCTYPE svg PUBLIC "-//W3C//DTD SVG 1.1//EN" "http://www.w3.org/Graphics/SVG/1.1/DTD/svg11.dtd">
<!-- Uploaded to: SVG Repo, www.svgrepo.com, Transformed by: SVG Repo Mixer Tools -->
<svg fill="#000000" width="800px" height="800px" viewBox="0 0 24 24" id="lawn-mower" data-name="Flat Line" xmlns="http://www.w3.org/2000/svg" class="icon flat-line">
<g id="SVGRepo_bgCarrier" stroke-width="0"/>
<g id="SVGRepo_tracerCarrier" stroke-linecap="round" stroke-linejoin="round"/>
<g id="SVGRepo_iconCarrier">
<path id="secondary" d="M19,16V14a1,1,0,0,0-1-1H13l-.72-1.45a1,1,0,0,0-.9-.55H6l.72,5A2.4,2.4,0,0,1,7,16a2,2,0,0,1,2,2h8A2,2,0,0,1,19,16Z" style="fill: #3d550c; stroke-width: 2;"/>
<path id="primary" d="M6,11h5.38a1,1,0,0,1,.9.55L13,13h5a1,1,0,0,1,1,1v2" style="fill: none; stroke: #000000; stroke-linecap: round; stroke-linejoin: round; stroke-width: 2;"/>
<path id="primary-2" data-name="primary" d="M3,4H4.13a1,1,0,0,1,1,.86L6.72,16" style="fill: none; stroke: #000000; stroke-linecap: round; stroke-linejoin: round; stroke-width: 2;"/>
<path id="primary-3" data-name="primary" d="M17,18H9m0,0a2,2,0,1,1-2-2A2,2,0,0,1,9,18Zm12,0a2,2,0,1,1-2-2A2,2,0,0,1,21,18Z" style="fill: none; stroke: #000000; stroke-linecap: round; stroke-linejoin: round; stroke-width: 2;"/>
</g>
</svg>