<!DOCTYPE svg PUBLIC "-//W3C//DTD SVG 1.1//EN" "http://www.w3.org/Graphics/SVG/1.1/DTD/svg11.dtd">
<!-- Uploaded to: SVG Repo, www.svgrepo.com, Transformed by: SVG Repo Mixer Tools -->
<svg width="800px" height="800px" viewBox="-2.96 0 19.945 19.945" xmlns="http://www.w3.org/2000/svg" fill="#000000">
<g id="SVGRepo_bgCarrier" stroke-width="0"/>
<g id="SVGRepo_tracerCarrier" stroke-linecap="round" stroke-linejoin="round"/>
<g id="SVGRepo_iconCarrier"> <g id="tree-2" transform="translate(-4.992 -2.055)"> <path id="secondary" fill="#3d550c" d="M16.74,12.17A3.66,3.66,0,0,1,17,13.5,3.5,3.5,0,0,1,13.5,17a3.45,3.45,0,0,1-1.5-.35,3.45,3.45,0,0,1-1.5.35A3.5,3.5,0,0,1,7,13.5a3.66,3.66,0,0,1,.26-1.33,3.48,3.48,0,0,1,.81-5.86,4,4,0,0,1,7.86,0,3.48,3.48,0,0,1,.81,5.86Z"/> <path id="primary" d="M16.74,12.17A3.66,3.66,0,0,1,17,13.5,3.5,3.5,0,0,1,13.5,17a3.45,3.45,0,0,1-1.5-.35,3.45,3.45,0,0,1-1.5.35A3.5,3.5,0,0,1,7,13.5a3.66,3.66,0,0,1,.26-1.33,3.48,3.48,0,0,1,.81-5.86,4,4,0,0,1,7.86,0,3.48,3.48,0,0,1,.81,5.86ZM12,21V11M10,21h4" fill="none" stroke="#000000" stroke-linecap="round" stroke-linejoin="round" stroke-width="2"/> </g> </g>
</svg>