<!DOCTYPE svg PUBLIC "-//W3C//DTD SVG 1.1//EN" "http://www.w3.org/Graphics/SVG/1.1/DTD/svg11.dtd">
<!-- Uploaded to: SVG Repo, www.svgrepo.com, Transformed by: SVG Repo Mixer Tools -->
<svg fill="#000000" width="800px" height="800px" viewBox="0 0 24 24" id="wheelbarrow" data-name="Flat Line" xmlns="http://www.w3.org/2000/svg" class="icon flat-line">
<g id="SVGRepo_bgCarrier" stroke-width="0"/>
<g id="SVGRepo_tracerCarrier" stroke-linecap="round" stroke-linejoin="round"/>
<g id="SVGRepo_iconCarrier">
<path id="secondary" d="M6.67,7,8,11l6.37,3.54,3.39-2.37a1,1,0,0,0,.35-.45L20,7Z" style="fill: #3d550c; stroke-width: 2;"/>
<path id="primary" d="M17.21,16.11,8,11,6.23,5.68a1,1,0,0,0-1-.68H3" style="fill: none; stroke: #000000; stroke-linecap: round; stroke-linejoin: round; stroke-width: 2;"/>
<path id="primary-2" data-name="primary" d="M11.89,13.16,8.33,18.51a1.1,1.1,0,0,1-.92.49h0a1.1,1.1,0,0,1-1.07-1.37L8,11ZM6.67,7,8,11l6.37,3.54,3.39-2.37a1,1,0,0,0,.35-.45L20,7ZM19,15a2,2,0,1,0,2,2A2,2,0,0,0,19,15Z" style="fill: none; stroke: #000000; stroke-linecap: round; stroke-linejoin: round; stroke-width: 2;"/>
</g>
</svg>